# xmcd CD database file
#
# Track frame offsets:
#	150
#	15409
#	37621
#	55922
#	72574
#	93628
#	124874
#	147221
#	163559
#	188868
#	197742
#	222869
#	248666
#
# Disc length: 3542 seconds
#
# Revision: 2
# Processed by: cddbd v1.5.1PL2 Copyright (c) Steve Scherf et al.
# Submitted via: CdAid (MTCDDB.DLL V2003.12.21)
#
DISCID=b20dd40d
DTITLE=Enrico Rava - Rava plays Rava
DYEAR=1999
DGENRE=Jazz
TTITLE0=Le Solite Cose
TTITLE1=Bandoleros
TTITLE2=Suzie Wong (I)
TTITLE3=Grrr...
TTITLE4=Sola
TTITLE5=Certi Angoli Segreti
TTITLE6=Tomo Y Recuerdo
TTITLE7=Jazz at the Club Club
TTITLE8=Fragile
TTITLE9=Lady Orlando
TTITLE10=Parks
TTITLE11=Thank You, Come Again
TTITLE12=Suzie Wong (II)
EXTD=YEAR: 1999 ID3G:   8
EXTT0=
EXTT1=
EXTT2=
EXTT3=
EXTT4=
EXTT5=
EXTT6=
EXTT7=
EXTT8=
EXTT9=
EXTT10=
EXTT11=
EXTT12=
PLAYORDER=
